# xmcd CD database file
#
# Track frame offsets:
#        150
#        13142
#        33866
#        59747
#        71398
#        102800
#        127614
#        151400
#        172009
#        198603
#        221977
#        239856
#        257190
#        274733
#        292297
#
# Disc length: 4134 seconds
#
# Revision: 0
# Processed by: cddbd v1.5.2PL0 Copyright (c) Steve Scherf et al.
# Submitted via: CUERipper 2.1.5
#
DISCID=ee10240f
DTITLE=ダウンタウンブギウギバンド - BLOSSOM-35th Disc 1
DYEAR=1900
DGENRE=
TTITLE0=スモーキン・ブギ
TTITLE1=港のヨーコ・ヨコハマ・ヨコスカ
TTITLE2=身も心も
TTITLE3=「獅子の時代」メインテーマ
TTITLE4=シャブ・シャブ・パーティ(Live)
TTITLE5=住めば都(Live)
TTITLE6=無風地帯
TTITLE7=DON'T LOOK BACK
TTITLE8=We are Down Town Street Fighting Boogie Woogie Band
TTITLE9=JUST ONE MORE TIME
TTITLE10=炎の女(Single Version)
TTITLE11=TATTOOあり
TTITLE12=ハッシャバイ・シーンガール(Single Version)
TTITLE13=ジゴロ ライセンス
TTITLE14=地平線
EXTD=
EXTT0=
EXTT1=
EXTT2=
EXTT3=
EXTT4=
EXTT5=
EXTT6=
EXTT7=
EXTT8=
EXTT9=
EXTT10=
EXTT11=
EXTT12=
EXTT13=
EXTT14=
PLAYORDER=
